<svg width="14" height="14" viewBox="0 0 14 14" fill="none" xmlns="http://www.w3.org/2000/svg">
<path fill-rule="evenodd" clip-rule="evenodd" d="M7.37757 0.589258C7.27756 0.489274 7.14193 0.433105 7.0005 0.433105C6.85908 0.433105 6.72345 0.489274 6.62344 0.589258L0.589304 6.62232C0.539636 6.67187 0.500231 6.73072 0.473344 6.79552C0.446457 6.86031 0.432617 6.92977 0.432617 6.99993C0.432617 7.07008 0.446457 7.13954 0.473344 7.20433C0.500231 7.26913 0.539636 7.32798 0.589304 7.37753L6.62344 13.4106C6.72345 13.5106 6.85908 13.5667 7.0005 13.5667C7.14193 13.5667 7.27756 13.5106 7.37757 13.4106L13.4117 7.37753C13.4614 7.32798 13.5008 7.26913 13.5277 7.20433C13.5546 7.13954 13.5684 7.07008 13.5684 6.99993C13.5684 6.92977 13.5546 6.86031 13.5277 6.79552C13.5008 6.73072 13.4614 6.67187 13.4117 6.62232L7.37757 0.589258ZM6.99997 1.71992L1.71997 6.99993L6.99997 12.2799V1.71992Z" fill="#03A9F4"/>
</svg>
