<svg width="40" height="39" viewBox="0 0 40 39" fill="none" xmlns="http://www.w3.org/2000/svg">
<rect x="1.38181" y="0.5" width="38" height="38" fill="white" stroke="#03A9F4"/>
<path d="M20 8C16.1 8 13 11.1 13 15C12.9932 16.1469 13.2698 17.2777 13.8054 18.2918C14.341 19.3059 15.119 20.172 16.07 20.813C12.51 22.346 10 25.892 10 30H12C12 25.6 15.6 22 20 22C23.9 22 27 18.9 27 15C27 11.1 23.9 8 20 8ZM20 10C22.8 10 25 12.2 25 15C25 17.8 22.8 20 20 20C17.2 20 15 17.8 15 15C15 12.2 17.2 10 20 10ZM28.1 21V23.1C27.5 23.2 26.9 23.5 26.4 23.8L24.9 22.3L23.5 23.7L25 25.2C24.6 25.7 24.4 26.3 24.3 27H22V29H24.1C24.2 29.6 24.5 30.2 24.8 30.8L23.3 32.3L24.7 33.7L26.2 32.2C26.7 32.5 27.3 32.8 27.9 32.9V35H29.9V32.9C30.5 32.8 31.1 32.5 31.6 32.2L33.1 33.7L34.5 32.3L33 30.8C33.4 30.3 33.6 29.7 33.7 29H36V27H33.9C33.8 26.4 33.5 25.8 33.2 25.2L34.7 23.7L33.3 22.3L31.8 23.8C31.3 23.5 30.7 23.2 30.1 23.1V21H28.1ZM29 25C30.7 25 32 26.3 32 28C32 29.7 30.7 31 29 31C27.3 31 26 29.7 26 28C26 26.3 27.3 25 29 25ZM29 27C28.8729 27.0016 28.7476 27.0309 28.633 27.086C28.514 27.1426 28.4057 27.2194 28.313 27.313C28.2194 27.4057 28.1426 27.514 28.086 27.633C28.0309 27.7476 28.0016 27.8729 28 28C28 28.375 28.281 28.75 28.633 28.914C28.7476 28.9691 28.8729 28.9984 29 29C29.5 29 30 28.5 30 28C30 27.5 29.5 27 29 27Z" fill="#03A9F4"/>
</svg>
