<svg width="40" height="39" viewBox="0 0 40 39" fill="none" xmlns="http://www.w3.org/2000/svg">
<rect x="1.38181" y="0.5" width="38" height="38" fill="white" stroke="#03A9F4"/>
<path d="M16 6C12.145 6 9 9.145 9 13C9 15.41 10.23 17.55 12.094 18.813C8.527 20.343 6 23.883 6 28H8C8 23.57 11.57 20 16 20C17.375 20 18.656 20.36 19.781 20.969C18.6295 22.393 18.0009 24.1687 18 26C18 30.406 21.594 34 26 34C30.406 34 34 30.406 34 26C34 21.594 30.406 18 26 18C24.3147 18.0015 22.6733 18.5375 21.312 19.531C20.8627 19.2551 20.3927 19.0147 19.906 18.812C20.8573 18.1698 21.6368 17.3042 22.1762 16.291C22.7156 15.2778 22.9984 14.1478 23 13C23 9.145 19.855 6 16 6ZM16 8C18.773 8 21 10.227 21 13C21 15.773 18.773 18 16 18C13.227 18 11 15.773 11 13C11 10.227 13.227 8 16 8ZM26 20C29.324 20 32 22.676 32 26C32 29.324 29.324 32 26 32C22.676 32 20 29.324 20 26C20 22.676 22.676 20 26 20ZM25 22V25H22V27H25V30H27V27H30V25H27V22H25Z" fill="#03A9F4"/>
</svg>
