<svg width="36" height="36" viewBox="0 0 36 36" fill="none" xmlns="http://www.w3.org/2000/svg">
<path d="M18 5.625C13.6125 5.625 10.125 9.1125 10.125 13.5C10.1173 14.7902 10.4286 16.0624 11.0311 17.2033C11.6337 18.3442 12.5088 19.3185 13.5787 20.0396C9.57375 21.7642 6.75 25.7535 6.75 30.375H9C9 25.425 13.05 21.375 18 21.375C22.3875 21.375 25.875 17.8875 25.875 13.5C25.875 9.1125 22.3875 5.625 18 5.625ZM18 7.875C21.15 7.875 23.625 10.35 23.625 13.5C23.625 16.65 21.15 19.125 18 19.125C14.85 19.125 12.375 16.65 12.375 13.5C12.375 10.35 14.85 7.875 18 7.875ZM27.1125 20.25V22.6125C26.4375 22.725 25.7625 23.0625 25.2 23.4L23.5125 21.7125L21.9375 23.2875L23.625 24.975C23.175 25.5375 22.95 26.2125 22.8375 27H20.25V29.25H22.6125C22.725 29.925 23.0625 30.6 23.4 31.275L21.7125 32.9625L23.2875 34.5375L24.975 32.85C25.5375 33.1875 26.2125 33.525 26.8875 33.6375V36H29.1375V33.6375C29.8125 33.525 30.4875 33.1875 31.05 32.85L32.7375 34.5375L34.3125 32.9625L32.625 31.275C33.075 30.7125 33.3 30.0375 33.4125 29.25H36V27H33.6375C33.525 26.325 33.1875 25.65 32.85 24.975L34.5375 23.2875L32.9625 21.7125L31.275 23.4C30.7125 23.0625 30.0375 22.725 29.3625 22.6125V20.25H27.1125ZM28.125 24.75C30.0375 24.75 31.5 26.2125 31.5 28.125C31.5 30.0375 30.0375 31.5 28.125 31.5C26.2125 31.5 24.75 30.0375 24.75 28.125C24.75 26.2125 26.2125 24.75 28.125 24.75ZM28.125 27C27.982 27.0018 27.841 27.0348 27.7121 27.0968C27.5782 27.1604 27.4564 27.2468 27.3521 27.3521C27.2468 27.4564 27.1604 27.5782 27.0968 27.7121C27.0348 27.841 27.0018 27.982 27 28.125C27 28.5469 27.3161 28.9688 27.7121 29.1532C27.841 29.2152 27.982 29.2482 28.125 29.25C28.6875 29.25 29.25 28.6875 29.25 28.125C29.25 27.5625 28.6875 27 28.125 27Z" fill="#3C3C3C"/>
</svg>
