<svg width="36" height="36" viewBox="0 0 36 36" fill="none" xmlns="http://www.w3.org/2000/svg">
<path d="M6.75 27C7.19501 27 7.63002 27.132 8.00003 27.3792C8.37005 27.6264 8.65843 27.9778 8.82873 28.389C8.99903 28.8001 9.04359 29.2525 8.95677 29.689C8.86995 30.1254 8.65566 30.5263 8.34099 30.841C8.02632 31.1557 7.62541 31.37 7.18896 31.4568C6.7525 31.5436 6.3001 31.499 5.88896 31.3287C5.47783 31.1584 5.12643 30.87 4.8792 30.5C4.63196 30.13 4.5 29.695 4.5 29.25C4.5 28.6533 4.73705 28.081 5.15901 27.659C5.58097 27.2371 6.15326 27 6.75 27ZM6.75 24.75C5.85999 24.75 4.98996 25.0139 4.24994 25.5084C3.50991 26.0029 2.93314 26.7057 2.59254 27.5279C2.25195 28.3502 2.16283 29.255 2.33647 30.1279C2.5101 31.0008 2.93869 31.8026 3.56802 32.432C4.19736 33.0613 4.99918 33.4899 5.8721 33.6635C6.74501 33.8372 7.64981 33.7481 8.47208 33.4075C9.29434 33.0669 9.99715 32.4901 10.4916 31.7501C10.9861 31.01 11.25 30.14 11.25 29.25C11.25 28.0565 10.7759 26.9119 9.93198 26.068C9.08807 25.2241 7.94348 24.75 6.75 24.75ZM18 4.5C18.445 4.5 18.88 4.63196 19.25 4.87919C19.62 5.12643 19.9084 5.47783 20.0787 5.88896C20.249 6.3001 20.2936 6.7525 20.2068 7.18895C20.12 7.62541 19.9057 8.02632 19.591 8.34099C19.2763 8.65566 18.8754 8.86995 18.439 8.95677C18.0025 9.04358 17.5501 8.99903 17.139 8.82873C16.7278 8.65843 16.3764 8.37004 16.1292 8.00003C15.882 7.63002 15.75 7.19501 15.75 6.75C15.75 6.15326 15.9871 5.58097 16.409 5.15901C16.831 4.73705 17.4033 4.5 18 4.5ZM18 2.25C17.11 2.25 16.24 2.51392 15.4999 3.00839C14.7599 3.50285 14.1831 4.20566 13.8425 5.02792C13.5019 5.85019 13.4128 6.75499 13.5865 7.62791C13.7601 8.50082 14.1887 9.30264 14.818 9.93198C15.4474 10.5613 16.2492 10.9899 17.1221 11.1635C17.995 11.3372 18.8998 11.2481 19.7221 10.9075C20.5443 10.5669 21.2471 9.99009 21.7416 9.25007C22.2361 8.51004 22.5 7.64002 22.5 6.75C22.5 5.55653 22.0259 4.41193 21.182 3.56802C20.3381 2.72411 19.1935 2.25 18 2.25ZM29.25 4.5C29.695 4.5 30.13 4.63196 30.5 4.87919C30.87 5.12643 31.1584 5.47783 31.3287 5.88896C31.499 6.3001 31.5436 6.7525 31.4568 7.18895C31.37 7.62541 31.1557 8.02632 30.841 8.34099C30.5263 8.65566 30.1254 8.86995 29.689 8.95677C29.2525 9.04358 28.8001 8.99903 28.389 8.82873C27.9778 8.65843 27.6264 8.37004 27.3792 8.00003C27.132 7.63002 27 7.19501 27 6.75C27 6.15326 27.2371 5.58097 27.659 5.15901C28.081 4.73705 28.6533 4.5 29.25 4.5ZM29.25 2.25C28.36 2.25 27.49 2.51392 26.7499 3.00839C26.0099 3.50285 25.4331 4.20566 25.0925 5.02792C24.7519 5.85019 24.6628 6.75499 24.8365 7.62791C25.0101 8.50082 25.4387 9.30264 26.068 9.93198C26.6974 10.5613 27.4992 10.9899 28.3721 11.1635C29.245 11.3372 30.1498 11.2481 30.9721 10.9075C31.7943 10.5669 32.4971 9.99009 32.9916 9.25007C33.4861 8.51004 33.75 7.64002 33.75 6.75C33.75 5.55653 33.2759 4.41193 32.432 3.56802C31.5881 2.72411 30.4435 2.25 29.25 2.25ZM20.25 27V31.5H15.75V27H20.25ZM22.5 24.75H13.5V33.75H22.5V24.75Z" fill="#3C3C3C"/>
<path d="M6.75 27C7.19501 27 7.63002 27.132 8.00003 27.3792C8.37005 27.6264 8.65843 27.9778 8.82873 28.389C8.99903 28.8001 9.04359 29.2525 8.95677 29.689C8.86995 30.1254 8.65566 30.5263 8.34099 30.841C8.02632 31.1557 7.62541 31.37 7.18896 31.4568C6.7525 31.5436 6.3001 31.499 5.88896 31.3287C5.47783 31.1584 5.12643 30.87 4.8792 30.5C4.63196 30.13 4.5 29.695 4.5 29.25C4.5 28.6533 4.73705 28.081 5.15901 27.659C5.58097 27.2371 6.15326 27 6.75 27ZM6.75 24.75C5.85999 24.75 4.98996 25.0139 4.24994 25.5084C3.50991 26.0029 2.93314 26.7057 2.59254 27.5279C2.25195 28.3502 2.16283 29.255 2.33647 30.1279C2.5101 31.0008 2.93869 31.8026 3.56802 32.432C4.19736 33.0613 4.99918 33.4899 5.8721 33.6635C6.74501 33.8372 7.64981 33.7481 8.47208 33.4075C9.29434 33.0669 9.99715 32.4901 10.4916 31.7501C10.9861 31.01 11.25 30.14 11.25 29.25C11.25 28.0565 10.7759 26.9119 9.93198 26.068C9.08807 25.2241 7.94348 24.75 6.75 24.75ZM18 4.5C18.445 4.5 18.88 4.63196 19.25 4.87919C19.62 5.12643 19.9084 5.47783 20.0787 5.88896C20.249 6.3001 20.2936 6.7525 20.2068 7.18895C20.12 7.62541 19.9057 8.02632 19.591 8.34099C19.2763 8.65566 18.8754 8.86995 18.439 8.95677C18.0025 9.04358 17.5501 8.99903 17.139 8.82873C16.7278 8.65843 16.3764 8.37004 16.1292 8.00003C15.882 7.63002 15.75 7.19501 15.75 6.75C15.75 6.15326 15.9871 5.58097 16.409 5.15901C16.831 4.73705 17.4033 4.5 18 4.5ZM18 2.25C17.11 2.25 16.24 2.51392 15.4999 3.00839C14.7599 3.50285 14.1831 4.20566 13.8425 5.02792C13.5019 5.85019 13.4128 6.75499 13.5865 7.62791C13.7601 8.50082 14.1887 9.30264 14.818 9.93198C15.4474 10.5613 16.2492 10.9899 17.1221 11.1635C17.995 11.3372 18.8998 11.2481 19.7221 10.9075C20.5443 10.5669 21.2471 9.99009 21.7416 9.25007C22.2361 8.51004 22.5 7.64002 22.5 6.75C22.5 5.55653 22.0259 4.41193 21.182 3.56802C20.3381 2.72411 19.1935 2.25 18 2.25ZM29.25 4.5C29.695 4.5 30.13 4.63196 30.5 4.87919C30.87 5.12643 31.1584 5.47783 31.3287 5.88896C31.499 6.3001 31.5436 6.7525 31.4568 7.18895C31.37 7.62541 31.1557 8.02632 30.841 8.34099C30.5263 8.65566 30.1254 8.86995 29.689 8.95677C29.2525 9.04358 28.8001 8.99903 28.389 8.82873C27.9778 8.65843 27.6264 8.37004 27.3792 8.00003C27.132 7.63002 27 7.19501 27 6.75C27 6.15326 27.2371 5.58097 27.659 5.15901C28.081 4.73705 28.6533 4.5 29.25 4.5ZM29.25 2.25C28.36 2.25 27.49 2.51392 26.7499 3.00839C26.0099 3.50285 25.4331 4.20566 25.0925 5.02792C24.7519 5.85019 24.6628 6.75499 24.8365 7.62791C25.0101 8.50082 25.4387 9.30264 26.068 9.93198C26.6974 10.5613 27.4992 10.9899 28.3721 11.1635C29.245 11.3372 30.1498 11.2481 30.9721 10.9075C31.7943 10.5669 32.4971 9.99009 32.9916 9.25007C33.4861 8.51004 33.75 7.64002 33.75 6.75C33.75 5.55653 33.2759 4.41193 32.432 3.56802C31.5881 2.72411 30.4435 2.25 29.25 2.25ZM20.25 27V31.5H15.75V27H20.25ZM22.5 24.75H13.5V33.75H22.5V24.75Z" fill="black"/>
<path d="M30.375 24.9075V19.125C30.375 18.5283 30.1379 17.956 29.716 17.534C29.294 17.1121 28.7217 16.875 28.125 16.875H7.875V11.25H11.25V2.25H2.25V11.25H5.625V16.875C5.625 17.4717 5.86205 18.044 6.28401 18.466C6.70597 18.8879 7.27826 19.125 7.875 19.125H28.125V24.9075C27.0645 25.1813 26.1403 25.8325 25.5256 26.739C24.9109 27.6455 24.6479 28.7451 24.7859 29.8316C24.9239 30.9182 25.4534 31.9171 26.2752 32.6411C27.0971 33.3652 28.1547 33.7646 29.25 33.7646C30.3453 33.7646 31.4029 33.3652 32.2248 32.6411C33.0466 31.9171 33.5761 30.9182 33.7141 29.8316C33.8521 28.7451 33.5891 27.6455 32.9744 26.739C32.3597 25.8325 31.4355 25.1813 30.375 24.9075ZM4.5 4.5H9V9H4.5V4.5ZM29.25 31.5C28.805 31.5 28.37 31.368 28 31.1208C27.63 30.8736 27.3416 30.5222 27.1713 30.111C27.001 29.6999 26.9564 29.2475 27.0432 28.811C27.13 28.3746 27.3443 27.9737 27.659 27.659C27.9737 27.3443 28.3746 27.13 28.811 27.0432C29.2475 26.9564 29.6999 27.001 30.111 27.1713C30.5222 27.3416 30.8736 27.63 31.1208 28C31.368 28.37 31.5 28.805 31.5 29.25C31.5 29.8467 31.2629 30.419 30.841 30.841C30.419 31.2629 29.8467 31.5 29.25 31.5Z" fill="black"/>
<path d="M30.375 24.9075V19.125C30.375 18.5283 30.1379 17.956 29.716 17.534C29.294 17.1121 28.7217 16.875 28.125 16.875H7.875V11.25H11.25V2.25H2.25V11.25H5.625V16.875C5.625 17.4717 5.86205 18.044 6.28401 18.466C6.70597 18.8879 7.27826 19.125 7.875 19.125H28.125V24.9075C27.0645 25.1813 26.1403 25.8325 25.5256 26.739C24.9109 27.6455 24.6479 28.7451 24.7859 29.8316C24.9239 30.9182 25.4534 31.9171 26.2752 32.6411C27.0971 33.3652 28.1547 33.7646 29.25 33.7646C30.3453 33.7646 31.4029 33.3652 32.2248 32.6411C33.0466 31.9171 33.5761 30.9182 33.7141 29.8316C33.8521 28.7451 33.5891 27.6455 32.9744 26.739C32.3597 25.8325 31.4355 25.1813 30.375 24.9075ZM4.5 4.5H9V9H4.5V4.5ZM29.25 31.5C28.805 31.5 28.37 31.368 28 31.1208C27.63 30.8736 27.3416 30.5222 27.1713 30.111C27.001 29.6999 26.9564 29.2475 27.0432 28.811C27.13 28.3746 27.3443 27.9737 27.659 27.659C27.9737 27.3443 28.3746 27.13 28.811 27.0432C29.2475 26.9564 29.6999 27.001 30.111 27.1713C30.5222 27.3416 30.8736 27.63 31.1208 28C31.368 28.37 31.5 28.805 31.5 29.25C31.5 29.8467 31.2629 30.419 30.841 30.841C30.419 31.2629 29.8467 31.5 29.25 31.5Z" fill="#3C3C3C"/>
</svg>
