<svg width="20" height="20" viewBox="0 0 20 20" fill="none" xmlns="http://www.w3.org/2000/svg">
<g clip-path="url(#clip0_159_577)">
<path d="M5 14.5H1C0.723858 14.5 0.5 14.7239 0.5 15V19C0.5 19.2761 0.723858 19.5 1 19.5H5C5.27614 19.5 5.5 19.2761 5.5 19V15C5.5 14.7239 5.27614 14.5 5 14.5Z" stroke="#333333"/>
<path d="M5 7.5H1C0.723858 7.5 0.5 7.72386 0.5 8V12C0.5 12.2761 0.723858 12.5 1 12.5H5C5.27614 12.5 5.5 12.2761 5.5 12V8C5.5 7.72386 5.27614 7.5 5 7.5Z" stroke="#333333"/>
<path d="M12 14.5H8C7.72386 14.5 7.5 14.7239 7.5 15V19C7.5 19.2761 7.72386 19.5 8 19.5H12C12.2761 19.5 12.5 19.2761 12.5 19V15C12.5 14.7239 12.2761 14.5 12 14.5Z" stroke="#333333"/>
<path d="M12 7.5H8C7.72386 7.5 7.5 7.72386 7.5 8V12C7.5 12.2761 7.72386 12.5 8 12.5H12C12.2761 12.5 12.5 12.2761 12.5 12V8C12.5 7.72386 12.2761 7.5 12 7.5Z" stroke="#333333"/>
<path d="M19 14.5H15C14.7239 14.5 14.5 14.7239 14.5 15V19C14.5 19.2761 14.7239 19.5 15 19.5H19C19.2761 19.5 19.5 19.2761 19.5 19V15C19.5 14.7239 19.2761 14.5 19 14.5Z" stroke="#333333"/>
<path d="M19 7.5H15C14.7239 7.5 14.5 7.72386 14.5 8V12C14.5 12.2761 14.7239 12.5 15 12.5H19C19.2761 12.5 19.5 12.2761 19.5 12V8C19.5 7.72386 19.2761 7.5 19 7.5Z" stroke="#333333"/>
<path d="M19 0.5H1C0.723858 0.5 0.5 0.723858 0.5 1V5C0.5 5.27614 0.723858 5.5 1 5.5H19C19.2761 5.5 19.5 5.27614 19.5 5V1C19.5 0.723858 19.2761 0.5 19 0.5Z" stroke="#333333"/>
</g>
<defs>
<clipPath id="clip0_159_577">
<rect width="20" height="20" fill="white"/>
</clipPath>
</defs>
</svg>
