<svg width="36" height="36" viewBox="0 0 36 36" fill="none" xmlns="http://www.w3.org/2000/svg">
<path d="M18 5.625C13.6631 5.625 10.125 9.16313 10.125 13.5C10.125 16.2113 11.5087 18.6187 13.6058 20.0396C9.59288 21.7609 6.75 25.7434 6.75 30.375H9C9 25.3913 13.0163 21.375 18 21.375C22.9837 21.375 27 25.3913 27 30.375H29.25C29.25 25.7434 26.4071 21.762 22.3942 20.0385C23.4645 19.316 24.3414 18.3422 24.9482 17.2024C25.555 16.0625 25.8732 14.7913 25.875 13.5C25.875 9.16313 22.3369 5.625 18 5.625ZM18 7.875C21.1196 7.875 23.625 10.3804 23.625 13.5C23.625 16.6196 21.1196 19.125 18 19.125C14.8804 19.125 12.375 16.6196 12.375 13.5C12.375 10.3804 14.8804 7.875 18 7.875Z" fill="#3C3C3C"/>
</svg>
