<svg width="36" height="36" viewBox="0 0 36 36" fill="none" xmlns="http://www.w3.org/2000/svg">
<path d="M24.75 30.5775L21.8362 27.6638L20.25 29.25L24.75 33.75L33.75 24.75L32.1637 23.1638L24.75 30.5775Z" fill="#3C3C3C"/>
<path d="M28.125 5.625H24.75V4.5C24.7482 3.90381 24.5106 3.33255 24.089 2.91098C23.6675 2.48941 23.0962 2.25178 22.5 2.25H13.5C12.9038 2.25178 12.3325 2.48941 11.911 2.91098C11.4894 3.33255 11.2518 3.90381 11.25 4.5V5.625H7.875C7.27881 5.62678 6.70755 5.86441 6.28598 6.28598C5.86441 6.70755 5.62678 7.27881 5.625 7.875V31.5C5.62678 32.0962 5.86441 32.6675 6.28598 33.089C6.70755 33.5106 7.27881 33.7482 7.875 33.75H18V31.5H7.875V7.875H11.25V11.25H24.75V7.875H28.125V20.25H30.375V7.875C30.3732 7.27881 30.1356 6.70755 29.714 6.28598C29.2925 5.86441 28.7212 5.62678 28.125 5.625ZM22.5 9H13.5V4.5H22.5V9Z" fill="#3C3C3C"/>
</svg>
