<svg width="36" height="36" viewBox="0 0 36 36" fill="none" xmlns="http://www.w3.org/2000/svg">
<path d="M23.625 15.75H30.375C30.9717 15.75 31.544 15.5129 31.966 15.091C32.3879 14.669 32.625 14.0967 32.625 13.5V6.75C32.625 6.15326 32.3879 5.58097 31.966 5.15901C31.544 4.73705 30.9717 4.5 30.375 4.5H23.625C23.0283 4.5 22.456 4.73705 22.034 5.15901C21.6121 5.58097 21.375 6.15326 21.375 6.75V9H20.25C19.0577 9.00371 17.9152 9.47901 17.0721 10.3221C16.229 11.1652 15.7537 12.3077 15.75 13.5V16.875H12.375V15.1875C12.375 14.5908 12.1379 14.0185 11.716 13.5965C11.294 13.1746 10.7217 12.9375 10.125 12.9375H4.5C3.90326 12.9375 3.33097 13.1746 2.90901 13.5965C2.48705 14.0185 2.25 14.5908 2.25 15.1875V20.8125C2.25 21.4092 2.48705 21.9815 2.90901 22.4035C3.33097 22.8254 3.90326 23.0625 4.5 23.0625H10.125C10.7217 23.0625 11.294 22.8254 11.716 22.4035C12.1379 21.9815 12.375 21.4092 12.375 20.8125V19.125H15.75V22.5C15.7537 23.6923 16.229 24.8348 17.0721 25.6779C17.9152 26.521 19.0577 26.9963 20.25 27H21.375V29.25C21.375 29.8467 21.6121 30.419 22.034 30.841C22.456 31.2629 23.0283 31.5 23.625 31.5H30.375C30.9717 31.5 31.544 31.2629 31.966 30.841C32.3879 30.419 32.625 29.8467 32.625 29.25V22.5C32.625 21.9033 32.3879 21.331 31.966 20.909C31.544 20.4871 30.9717 20.25 30.375 20.25H23.625C23.0283 20.25 22.456 20.4871 22.034 20.909C21.6121 21.331 21.375 21.9033 21.375 22.5V24.75H20.25C19.6533 24.75 19.081 24.5129 18.659 24.091C18.2371 23.669 18 23.0967 18 22.5V13.5C18 12.9033 18.2371 12.331 18.659 11.909C19.081 11.4871 19.6533 11.25 20.25 11.25H21.375V13.5C21.375 14.0967 21.6121 14.669 22.034 15.091C22.456 15.5129 23.0283 15.75 23.625 15.75ZM10.125 20.8125H4.5V15.1875H10.125V20.8125ZM23.625 22.5H30.375V29.25H23.625V22.5ZM23.625 6.75H30.375V13.5H23.625V6.75Z" fill="#3C3C3C"/>
</svg>
