<svg width="33" height="33" viewBox="0 0 33 33" fill="none" xmlns="http://www.w3.org/2000/svg">
<path d="M14.0315 0.531494H23.0315V3.53149H14.0315V0.531494ZM29.06 10.115L31.211 7.96399L29.09 5.84299L26.9405 7.99249C24.5854 6.10521 21.6652 5.06263 18.6473 5.03163C15.6294 5.00063 12.6884 5.983 10.295 7.82149L12.425 9.98149C14.2046 8.71754 16.3322 8.03627 18.515 8.03149L18.53 8.03299V18.503L25.9595 25.94C24.4928 27.4136 22.6217 28.4186 20.5832 28.8278C18.5448 29.237 16.4308 29.0319 14.509 28.2384C12.5872 27.445 10.9442 26.099 9.78817 24.371C8.63209 22.6429 8.01498 20.6106 8.01501 18.5315H12.515L6.51501 12.5315L0.515015 18.5315H5.01502C5.01297 20.6887 5.52793 22.8151 6.51675 24.7323C7.50558 26.6496 8.93947 28.302 10.6983 29.5511C12.4571 30.8001 14.4897 31.6095 16.6257 31.9114C18.7617 32.2133 20.939 31.9989 22.9751 31.2862C25.0112 30.5735 26.8469 29.3833 28.3283 27.8151C29.8098 26.247 30.8938 24.3467 31.4897 22.2734C32.0856 20.2001 32.176 18.0142 31.7533 15.8988C31.3305 13.7833 30.407 11.8 29.06 10.115Z" fill="#3C3C3C"/>
</svg>
