<svg width="20" height="20" viewBox="0 0 20 20" fill="none" xmlns="http://www.w3.org/2000/svg">
<g clip-path="url(#clip0_159_534)">
<path d="M10.5263 2.63157C10.5263 2.34089 10.2907 2.10526 10 2.10526C9.70933 2.10526 9.47369 2.34089 9.47369 2.63157V9.99999C9.47369 10.2907 9.70933 10.5263 10 10.5263C10.2907 10.5263 10.5263 10.2907 10.5263 9.99999V2.63157Z" fill="#333333"/>
<path d="M15.2632 10.5263C15.5539 10.5263 15.7895 10.2907 15.7895 10C15.7895 9.70933 15.5539 9.47369 15.2632 9.47369H10C9.70934 9.47369 9.4737 9.70933 9.4737 10C9.4737 10.2907 9.70934 10.5263 10 10.5263H15.2632Z" fill="#333333"/>
<path fill-rule="evenodd" clip-rule="evenodd" d="M8.42105 0.125153C3.66427 0.883285 0 4.99596 0 10.0039C0 15.0097 3.68245 19.1177 8.42105 19.8749V18.9152C4.21877 18.1491 1 14.3899 1 10.0039C1 5.61788 4.21877 1.90135 8.42105 1.14457V0.125153Z" fill="#333333"/>
<path d="M10 1.05263C10.2907 1.05263 10.5263 0.816992 10.5263 0.526316C10.5263 0.23564 10.2907 0 10 0C9.70933 0 9.47369 0.23564 9.47369 0.526316C9.47369 0.816992 9.70933 1.05263 10 1.05263Z" fill="#333333"/>
<path d="M18.9474 10C18.9474 10.2907 19.183 10.5263 19.4737 10.5263C19.7644 10.5263 20 10.2907 20 10C20 9.70933 19.7644 9.47369 19.4737 9.47369C19.183 9.47369 18.9474 9.70933 18.9474 10Z" fill="#333333"/>
<path d="M12.3155 1.35754C12.5962 1.43278 12.8848 1.26615 12.9601 0.985382C13.0353 0.704611 12.8687 0.416012 12.5879 0.34078C12.3071 0.265547 12.0185 0.43217 11.9433 0.712941C11.8681 0.993713 12.0347 1.28231 12.3155 1.35754Z" fill="#333333"/>
<path d="M18.6425 12.3158C18.5673 12.5965 18.7339 12.8851 19.0146 12.9604C19.2954 13.0356 19.584 12.869 19.6593 12.5882C19.7345 12.3074 19.5679 12.0188 19.2871 11.9436C19.0063 11.8684 18.7177 12.035 18.6425 12.3158Z" fill="#333333"/>
<path d="M14.4736 2.25155C14.7253 2.39688 15.0472 2.31063 15.1925 2.0589C15.3379 1.80717 15.2516 1.48528 14.9999 1.33994C14.7481 1.1946 14.4262 1.28085 14.2809 1.53259C14.1356 1.78432 14.2218 2.10621 14.4736 2.25155Z" fill="#333333"/>
<path d="M17.7484 14.4736C17.6031 14.7253 17.6893 15.0472 17.941 15.1925C18.1928 15.3379 18.5147 15.2516 18.66 14.9999C18.8053 14.7482 18.7191 14.4263 18.4674 14.2809C18.2156 14.1356 17.8937 14.2219 17.7484 14.4736Z" fill="#333333"/>
<path d="M16.3271 3.67328C16.5327 3.87882 16.8659 3.87882 17.0714 3.67328C17.277 3.46774 17.277 3.13449 17.0714 2.92895C16.8659 2.72342 16.5327 2.72342 16.3271 2.92895C16.1216 3.13449 16.1216 3.46774 16.3271 3.67328Z" fill="#333333"/>
<path d="M16.327 16.3268C16.1215 16.5323 16.1215 16.8656 16.327 17.0711C16.5325 17.2766 16.8658 17.2766 17.0713 17.0711C17.2769 16.8656 17.2769 16.5323 17.0713 16.3268C16.8658 16.1212 16.5325 16.1212 16.327 16.3268Z" fill="#333333"/>
<path d="M17.749 5.52646C17.8943 5.77819 18.2162 5.86444 18.4679 5.71911C18.7196 5.57377 18.8059 5.25188 18.6606 5.00014C18.5152 4.74841 18.1933 4.66216 17.9416 4.8075C17.6899 4.95284 17.6036 5.27473 17.749 5.52646Z" fill="#333333"/>
<path d="M14.4738 17.7487C14.2221 17.894 14.1358 18.2159 14.2812 18.4677C14.4265 18.7194 14.7484 18.8057 15.0001 18.6603C15.2519 18.515 15.3381 18.1931 15.1928 17.9414C15.0474 17.6896 14.7255 17.6034 14.4738 17.7487Z" fill="#333333"/>
<path d="M18.6425 7.68436C18.7177 7.96513 19.0063 8.13175 19.2871 8.05652C19.5678 7.98129 19.7345 7.69269 19.6592 7.41192C19.584 7.13114 19.2954 6.96452 19.0146 7.03975C18.7339 7.11499 18.5672 7.40359 18.6425 7.68436Z" fill="#333333"/>
<path d="M12.3159 18.6425C12.0351 18.7177 11.8685 19.0063 11.9437 19.2871C12.0189 19.5678 12.3075 19.7345 12.5883 19.6592C12.8691 19.584 13.0357 19.2954 12.9605 19.0146C12.8852 18.7339 12.5966 18.5672 12.3159 18.6425Z" fill="#333333"/>
<path d="M9.99999 18.9474C9.70931 18.9474 9.47367 19.183 9.47367 19.4737C9.47367 19.7644 9.70931 20 9.99999 20C10.2907 20 10.5263 19.7644 10.5263 19.4737C10.5263 19.183 10.2907 18.9474 9.99999 18.9474Z" fill="#333333"/>
</g>
<defs>
<clipPath id="clip0_159_534">
<rect width="20" height="20" fill="white"/>
</clipPath>
</defs>
</svg>
