<svg width="16" height="16" viewBox="0 0 16 16" fill="none" xmlns="http://www.w3.org/2000/svg">
<g clip-path="url(#clip0_294_9752)">
<path d="M7.99988 3.42848C8.84146 3.42848 9.52369 2.74625 9.52369 1.90467C9.52369 1.06309 8.84146 0.380859 7.99988 0.380859C7.15831 0.380859 6.47607 1.06309 6.47607 1.90467C6.47607 2.74625 7.15831 3.42848 7.99988 3.42848Z" stroke="#333333"/>
<path d="M7.99988 9.52369C8.84146 9.52369 9.52369 8.84146 9.52369 7.99988C9.52369 7.15831 8.84146 6.47607 7.99988 6.47607C7.15831 6.47607 6.47607 7.15831 6.47607 7.99988C6.47607 8.84146 7.15831 9.52369 7.99988 9.52369Z" stroke="#333333"/>
<path d="M7.99988 15.6192C8.84146 15.6192 9.52369 14.9369 9.52369 14.0953C9.52369 13.2538 8.84146 12.5715 7.99988 12.5715C7.15831 12.5715 6.47607 13.2538 6.47607 14.0953C6.47607 14.9369 7.15831 15.6192 7.99988 15.6192Z" stroke="#333333"/>
</g>
<defs>
<clipPath id="clip0_294_9752">
<rect width="16" height="16" fill="white"/>
</clipPath>
</defs>
</svg>
