<svg width="6" height="4" viewBox="0 0 6 4" fill="none" xmlns="http://www.w3.org/2000/svg">
<path d="M2.79397 2.7176C2.8169 2.73758 3.23592 3.08131 3.27172 3.0926C3.30751 3.10389 3.33402 3.125 3.37447 3.125C3.41491 3.125 3.44142 3.10389 3.47722 3.0926C3.51301 3.08131 3.93203 2.73758 3.95497 2.7176L5.82997 1.11033C5.85601 1.08784 5.87128 1.0615 5.87412 1.03417C5.87697 1.00684 5.86727 0.979561 5.84609 0.955303C5.8249 0.931046 5.79305 0.910735 5.75397 0.896577C5.7149 0.882419 5.67011 0.874957 5.62447 0.875H1.12447C1.07893 0.875113 1.0343 0.882672 0.995386 0.896863C0.956471 0.911055 0.924741 0.931342 0.903608 0.955543C0.882474 0.979745 0.872737 1.00695 0.875443 1.03422C0.878149 1.06149 0.893196 1.08781 0.918965 1.11033L2.79397 2.7176Z" fill="#333333"/>
</svg>
