<svg width="15" height="14" viewBox="0 0 15 14" fill="none" xmlns="http://www.w3.org/2000/svg">
<g clip-path="url(#clip0_182_26167)">
<path fill-rule="evenodd" clip-rule="evenodd" d="M13.45 1.4H11V0.35C11 0.14 10.86 0 10.65 0C10.44 0 10.3 0.14 10.3 0.35V1.4H4V0.35C4 0.14 3.86 0 3.65 0C3.44 0 3.3 0.14 3.3 0.35V1.4H0.85C0.64 1.4 0.5 1.54 0.5 1.75V12.95C0.5 13.16 0.64 13.3 0.85 13.3H13.45C13.52 13.3 13.52 13.3 13.59 13.3C13.73 13.23 13.8 13.09 13.8 12.95V1.75C13.8 1.54 13.66 1.4 13.45 1.4ZM13.1 12.6H1.2V4.9H13.1V12.6ZM13.1 4.2H1.2V2.1H3.3V3.15C3.3 3.36 3.44 3.5 3.65 3.5C3.86 3.5 4 3.36 4 3.15V2.1H10.3V3.15C10.3 3.36 10.44 3.5 10.65 3.5C10.86 3.5 11 3.36 11 3.15V2.1H13.1V4.2ZM4 7H3.3V7.7H4V7ZM11 7H10.3V7.7H11V7ZM9.6 7H8.9V7.7H9.6V7ZM5.4 7H4.7V7.7H5.4V7ZM8.2 7H7.5V7.7H8.2V7ZM6.8 7H6.1V7.7H6.8V7ZM4 8.4H3.3V9.1H4V8.4ZM11 8.4H10.3V9.1H11V8.4ZM9.6 8.4H8.9V9.1H9.6V8.4ZM5.4 8.4H4.7V9.1H5.4V8.4ZM8.2 8.4H7.5V9.1H8.2V8.4ZM6.8 8.4H6.1V9.1H6.8V8.4ZM4 9.8H3.3V10.5H4V9.8ZM11 9.8H10.3V10.5H11V9.8ZM9.6 9.8H8.9V10.5H9.6V9.8ZM5.4 9.8H4.7V10.5H5.4V9.8ZM8.2 9.8H7.5V10.5H8.2V9.8ZM6.8 9.8H6.1V10.5H6.8V9.8Z" fill="#C6D2D9"/>
</g>
<defs>
<clipPath id="clip0_182_26167">
<rect width="14" height="14" fill="white" transform="translate(0.5)"/>
</clipPath>
</defs>
</svg>
