<svg width="12" height="16" viewBox="0 0 12 16" fill="none" xmlns="http://www.w3.org/2000/svg">
<path d="M1.14479 8.52147L10.7633 15.1805C10.8743 15.2573 11.0042 15.3022 11.139 15.3105C11.2737 15.3188 11.4081 15.2901 11.5277 15.2274C11.6472 15.1648 11.7474 15.0706 11.8173 14.9551C11.8872 14.8397 11.9242 14.7073 11.9242 14.5723V1.25429C11.9243 1.11925 11.8874 0.986752 11.8176 0.871167C11.7477 0.755581 11.6476 0.661315 11.528 0.598584C11.4084 0.535853 11.2739 0.50705 11.1391 0.515297C11.0043 0.523544 10.8744 0.568525 10.7633 0.645367L1.14479 7.30435C1.0468 7.37274 0.966768 7.46378 0.911509 7.56973C0.856249 7.67568 0.827393 7.79341 0.827393 7.91291C0.827393 8.03241 0.856249 8.15014 0.911509 8.25609C0.966768 8.36204 1.0468 8.45308 1.14479 8.52147Z" fill="#3C3C3C"/>
</svg>
