<svg width="12" height="16" viewBox="0 0 12 16" fill="none" xmlns="http://www.w3.org/2000/svg">
<path d="M1.08988 15.2279C1.20957 15.2902 1.34395 15.3187 1.4786 15.3103C1.61325 15.302 1.74309 15.2571 1.85418 15.1806L11.4727 8.52158C11.571 8.45349 11.6513 8.36259 11.7068 8.25667C11.7623 8.15075 11.7912 8.03296 11.7912 7.91339C11.7912 7.79383 11.7623 7.67604 11.7068 7.57012C11.6513 7.4642 11.571 7.3733 11.4727 7.30521L1.85418 0.646221C1.74318 0.569415 1.61328 0.524439 1.47855 0.516163C1.34382 0.507886 1.20939 0.536625 1.08983 0.599267C0.970258 0.661909 0.870104 0.756067 0.80021 0.871546C0.730316 0.987025 0.693344 1.11942 0.693298 1.25441V14.5724C0.693276 14.7074 0.730221 14.8399 0.800129 14.9555C0.870036 15.071 0.97024 15.1653 1.08988 15.2279Z" fill="#03A9F4"/>
</svg>
