<svg width="14" height="16" viewBox="0 0 14 16" fill="none" xmlns="http://www.w3.org/2000/svg">
<path d="M12.92 16H1.10451C0.864512 16 0.624512 15.76 0.624512 15.52V0.480005C0.624512 0.240005 0.864512 0 1.10451 0H10.12C10.36 0 10.4193 0.0353606 10.5178 0.149032C10.5712 0.210559 10.6204 0.247474 10.68 0.319995L13.08 2.55998C13.16 2.63998 13.16 2.63999 13.24 2.71999C13.32 2.79999 13.4 2.95999 13.4 3.11999V15.52C13.4 15.76 13.16 16 12.92 16ZM10.2 0.719995V3.2H12.52L10.2 0.719995ZM12.6 3.91999H10.12C9.64005 3.91999 9.40005 3.59999 9.40005 3.11999V0.719995H1.42451V15.2H12.6V3.91999ZM3.42451 3.2H7.40005C7.64005 3.2 7.80005 3.36 7.80005 3.6C7.80005 3.84 7.64005 4 7.40005 4H3.42451C3.18451 4 3.02451 3.84 3.02451 3.6C3.02451 3.36 3.18451 3.2 3.42451 3.2ZM3.42451 5.6H10.6C10.84 5.6 11 5.76 11 6C11 6.24 10.84 6.4 10.6 6.4H3.42451C3.18451 6.4 3.02451 6.24 3.02451 6C3.02451 5.76 3.18451 5.6 3.42451 5.6ZM3.42451 8H10.6C10.84 8 11 8.16 11 8.4C11 8.64 10.84 8.8 10.6 8.8H3.42451C3.18451 8.8 3.02451 8.64 3.02451 8.4C3.02451 8.16 3.18451 8 3.42451 8ZM3.42451 10.4H10.6C10.84 10.4 11 10.56 11 10.8C11 11.04 10.84 11.2 10.6 11.2H3.42451C3.18451 11.2 3.02451 11.04 3.02451 10.8C3.02451 10.56 3.18451 10.4 3.42451 10.4ZM3.42451 12.8H10.6C10.84 12.8 11 12.96 11 13.2C11 13.44 10.84 13.6 10.6 13.6H3.42451C3.18451 13.6 3.02451 13.44 3.02451 13.2C3.02451 12.96 3.18451 12.8 3.42451 12.8Z" fill="#03A9F4"/>
</svg>
