<svg width="12" height="17" viewBox="0 0 12 17" fill="none" xmlns="http://www.w3.org/2000/svg">
<path d="M11.0524 4.93017L7.16803 1.04576C7.1192 0.99154 7.05918 0.948573 6.99211 0.919829C6.92504 0.891086 6.85253 0.877252 6.77959 0.879285H1.23044C0.936361 0.880163 0.654581 0.997374 0.446638 1.20532C0.238694 1.41326 0.121484 1.69504 0.120605 1.98912V15.3071C0.121484 15.6012 0.238694 15.8829 0.446638 16.0909C0.654581 16.2988 0.936361 16.416 1.23044 16.4169H10.1091C10.4032 16.416 10.6849 16.2988 10.8929 16.0909C11.1008 15.8829 11.218 15.6012 11.2189 15.3071V5.31861C11.2209 5.24567 11.2071 5.17316 11.1784 5.10609C11.1496 5.03902 11.1067 4.979 11.0524 4.93017ZM6.77959 2.21108L9.88712 5.31861H6.77959V2.21108ZM10.1091 15.3071H1.23044V1.98912H5.66976V5.31861C5.67064 5.61268 5.78785 5.89446 5.99579 6.10241C6.20374 6.31035 6.48552 6.42756 6.77959 6.42844H10.1091V15.3071Z" fill="#0088CC"/>
</svg>
