<svg width="19" height="19" viewBox="0 0 19 19" fill="none" xmlns="http://www.w3.org/2000/svg">
<path d="M12.9993 5.20884V13.7175C12.9993 14.5025 12.6874 15.2552 12.1324 15.8103C11.5774 16.3653 10.8246 16.6771 10.0397 16.6771C9.25478 16.6771 8.50201 16.3653 7.94698 15.8103C7.39196 15.2552 7.08015 14.5025 7.08015 13.7175V4.46895C7.08015 3.97837 7.27503 3.50789 7.62192 3.161C7.96881 2.81411 8.4393 2.61923 8.92987 2.61923C9.42045 2.61923 9.89093 2.81411 10.2378 3.161C10.5847 3.50789 10.7796 3.97837 10.7796 4.46895V12.2378C10.7796 12.434 10.7016 12.6222 10.5629 12.7609C10.4241 12.8997 10.2359 12.9777 10.0397 12.9777C9.84347 12.9777 9.65528 12.8997 9.51652 12.7609C9.37777 12.6222 9.29981 12.434 9.29981 12.2378V5.20884H8.18998V12.2378C8.18998 12.7283 8.38486 13.1988 8.73175 13.5457C9.07864 13.8926 9.54913 14.0875 10.0397 14.0875C10.5303 14.0875 11.0008 13.8926 11.3477 13.5457C11.6945 13.1988 11.8894 12.7283 11.8894 12.2378V4.46895C11.8894 3.68403 11.5776 2.93125 11.0226 2.37623C10.4676 1.82121 9.71479 1.5094 8.92987 1.5094C8.14495 1.5094 7.39218 1.82121 6.83715 2.37623C6.28213 2.93125 5.97032 3.68403 5.97032 4.46895V13.7175C5.97032 14.7968 6.39906 15.8319 7.16222 16.595C7.92537 17.3582 8.96044 17.7869 10.0397 17.7869C11.119 17.7869 12.154 17.3582 12.9172 16.595C13.6803 15.8319 14.1091 14.7968 14.1091 13.7175V5.20884H12.9993Z" fill="#03A9F4"/>
</svg>
