<svg width="50" height="50" viewBox="0 0 50 50" fill="none" xmlns="http://www.w3.org/2000/svg">
<path d="M6.25 8.33325V2.08325H10.4167V8.33325H16.6667V12.4999H10.4167V18.7499H6.25V12.4999H0V8.33325H6.25ZM12.5 20.8333V14.5833H18.75V8.33325H33.3333L37.1458 12.4999H43.75C46.0417 12.4999 47.9167 14.3749 47.9167 16.6666V41.6666C47.9167 43.9583 46.0417 45.8333 43.75 45.8333H10.4167C8.125 45.8333 6.25 43.9583 6.25 41.6666V20.8333H12.5ZM27.0833 39.5833C32.8333 39.5833 37.5 34.9166 37.5 29.1666C37.5 23.4166 32.8333 18.7499 27.0833 18.7499C21.3333 18.7499 16.6667 23.4166 16.6667 29.1666C16.6667 34.9166 21.3333 39.5833 27.0833 39.5833ZM20.4167 29.1666C20.4167 32.8541 23.3958 35.8333 27.0833 35.8333C30.7708 35.8333 33.75 32.8541 33.75 29.1666C33.75 25.4791 30.7708 22.4999 27.0833 22.4999C23.3958 22.4999 20.4167 25.4791 20.4167 29.1666Z" fill="#03A9F4"/>
</svg>
