<svg width="28" height="28" viewBox="0 0 28 28" fill="none" xmlns="http://www.w3.org/2000/svg">
<g clip-path="url(#clip0_191_5558)">
<path d="M24.7669 5.09833H22.3623V6.5781H24.5819V22.8556H3.8651V6.5781H6.08476V5.09833H3.68012C3.50717 5.10122 3.33647 5.13815 3.17779 5.20702C3.01911 5.27589 2.87555 5.37535 2.75531 5.49971C2.63507 5.62407 2.54051 5.7709 2.47703 5.93181C2.41354 6.09272 2.38238 6.26457 2.38532 6.43752V22.9962C2.38238 23.1692 2.41354 23.341 2.47703 23.5019C2.54051 23.6628 2.63507 23.8097 2.75531 23.934C2.87555 24.0584 3.01911 24.1578 3.17779 24.2267C3.33647 24.2956 3.50717 24.3325 3.68012 24.3354H24.7669C24.9399 24.3325 25.1106 24.2956 25.2693 24.2267C25.4279 24.1578 25.5715 24.0584 25.6917 23.934C25.812 23.8097 25.9065 23.6628 25.97 23.5019C26.0335 23.341 26.0647 23.1692 26.0617 22.9962V6.43752C26.0647 6.26457 26.0335 6.09272 25.97 5.93181C25.9065 5.7709 25.812 5.62407 25.6917 5.49971C25.5715 5.37535 25.4279 5.27589 25.2693 5.20702C25.1106 5.13815 24.9399 5.10122 24.7669 5.09833Z" fill="#9CB9C5"/>
<path d="M6.82465 11.0174H8.30442V12.4972H6.82465V11.0174Z" fill="#9CB9C5"/>
<path d="M11.264 11.0174H12.7438V12.4972H11.264V11.0174Z" fill="#9CB9C5"/>
<path d="M15.7033 11.0174H17.1831V12.4972H15.7033V11.0174Z" fill="#9CB9C5"/>
<path d="M20.1426 11.0174H21.6224V12.4972H20.1426V11.0174Z" fill="#9CB9C5"/>
<path d="M6.82465 14.7169H8.30442V16.1966H6.82465V14.7169Z" fill="#9CB9C5"/>
<path d="M11.264 14.7169H12.7438V16.1966H11.264V14.7169Z" fill="#9CB9C5"/>
<path d="M15.7033 14.7169H17.1831V16.1966H15.7033V14.7169Z" fill="#9CB9C5"/>
<path d="M20.1426 14.7169H21.6224V16.1966H20.1426V14.7169Z" fill="#9CB9C5"/>
<path d="M6.82465 18.4163H8.30442V19.896H6.82465V18.4163Z" fill="#9CB9C5"/>
<path d="M11.264 18.4163H12.7438V19.896H11.264V18.4163Z" fill="#9CB9C5"/>
<path d="M15.7033 18.4163H17.1831V19.896H15.7033V18.4163Z" fill="#9CB9C5"/>
<path d="M20.1426 18.4163H21.6224V19.896H20.1426V18.4163Z" fill="#9CB9C5"/>
<path d="M8.3044 8.05783C8.50063 8.05783 8.68883 7.97988 8.82758 7.84112C8.96634 7.70237 9.04429 7.51417 9.04429 7.31795V2.87862C9.04429 2.68239 8.96634 2.4942 8.82758 2.35544C8.68883 2.21669 8.50063 2.13873 8.3044 2.13873C8.10817 2.13873 7.91998 2.21669 7.78122 2.35544C7.64247 2.4942 7.56451 2.68239 7.56451 2.87862V7.31795C7.56451 7.51417 7.64247 7.70237 7.78122 7.84112C7.91998 7.97988 8.10817 8.05783 8.3044 8.05783Z" fill="#9CB9C5"/>
<path d="M20.1426 8.05783C20.3388 8.05783 20.527 7.97988 20.6658 7.84112C20.8045 7.70237 20.8825 7.51417 20.8825 7.31795V2.87862C20.8825 2.68239 20.8045 2.4942 20.6658 2.35544C20.527 2.21669 20.3388 2.13873 20.1426 2.13873C19.9464 2.13873 19.7582 2.21669 19.6194 2.35544C19.4807 2.4942 19.4027 2.68239 19.4027 2.87862V7.31795C19.4027 7.51417 19.4807 7.70237 19.6194 7.84112C19.7582 7.97988 19.9464 8.05783 20.1426 8.05783Z" fill="#9CB9C5"/>
<path d="M10.5241 5.09833H17.923V6.5781H10.5241V5.09833Z" fill="#9CB9C5"/>
<path d="M3.86508 8.79773H24.5819V10.2775H3.86508V8.79773Z" fill="#9CB9C5"/>
</g>
<defs>
<clipPath id="clip0_191_5558">
<rect width="26.6359" height="26.6359" fill="white" transform="translate(0.905548 0.658997)"/>
</clipPath>
</defs>
</svg>
